<?xml version="1.0" standalone="no"?>
<!DOCTYPE svg PUBLIC "-//W3C//DTD SVG 1.1//EN" "http://www.w3.org/Graphics/SVG/1.1/DTD/svg11.dtd" >
<svg xmlns="http://www.w3.org/2000/svg">
<metadata>Generated by IcoMoon</metadata>
<defs>
<font id="icomoon" horiz-adv-x="1024">
<font-face units-per-em="1024" ascent="960" descent="-64" />
<missing-glyph horiz-adv-x="1024" />
<glyph unicode="&#x20;" horiz-adv-x="512" d="" />
<glyph unicode="&#xe900;" glyph-name="dashboard" horiz-adv-x="1241" d="M8.166 891.407h204.147v68.071h-204.147zM274.373 891.929h340.223v68.071h-340.223zM8.166 755.265h204.147v68.071h-204.147zM280.383 755.265h340.223v68.071h-340.223zM8.166 619.189h204.147v68.071h-204.147zM280.383 619.189h340.223v68.071h-340.223zM8.166 483.113h204.147v68.071h-204.147zM824.753 210.896h136.076v68.071h-136.076zM824.753 74.82h136.076v68.071h-136.076zM824.753-61.322h136.076v68.071h-136.076zM1028.9 210.896h204.147v68.071h-204.147zM904.697 500.784c-86.826 35.535-148.006 120.892-148.006 220.478 0 70.431 30.558 133.716 79.108 177.281l122.424-183.601-53.526-214.158zM970.726 484.325c7.911-0.829 16.013-1.212 24.179-1.212 131.547 0 238.149 106.602 238.149 238.149 0 8.166-0.383 16.268-1.212 24.179l-208.932-52.185-52.184-208.932zM892.384 936.322c31.068 14.864 65.837 23.158 102.519 23.158 99.586 0 184.941-61.18 220.478-148.006l-205.486-51.355-117.512 176.203zM1028.9 74.82h204.147v68.071h-204.147zM1028.9-61.322h204.147v68.071h-204.147zM8.166-61.256h68.071v408.293h-68.071zM144.242-61.256h68.071v136.076h-68.071zM280.383-61.322h68.071v272.217h-68.071zM416.459-61.322h68.071v272.217h-68.071zM552.535-61.256h68.071v204.147h-68.071zM280.383 483.113h340.223v68.071h-340.223z" />
<glyph unicode="&#xe901;" glyph-name="editors" d="M323.195 227.523l199.199 49.76c3.88 1 7.44 3.040 10.24 5.92l461.435 461.281c16.2 16.16 25.32 38.12 25.32 61.040s-9.12 44.88-25.32 61.040l-74.72 74.72c-12 12-28.28 18.759-45.28 18.759s-33.28-6.76-45.28-18.759l-476.959-477.276c-2.88-2.84-4.96-6.44-5.92-10.4l-49.76-199.045c-1.92-7.6 0.28-15.679 5.84-21.2 5.52-5.56 13.6-7.76 21.2-5.84h0.006zM874.076 896l90.561-90.561-45.28-45.119-90.561 90.4 45.28 45.28zM783.676 805.439l90.4-90.4-361.923-362.076-90.561 90.561 362.083 361.915zM421.6 352.954c5.72-5.68 7.96-14 5.8-21.76-2.16-7.8-8.36-13.8-16.2-15.679-7.6-1.92-15.679 0.28-21.2 5.84-5.56 5.52-7.76 13.6-5.84 21.2 1.88 7.84 7.88 14.040 15.679 16.2 7.76 2.16 16.080-0.080 21.76-5.8zM884.644 448c-17.68 0-32-14.32-32-32v-416h-783.995v783.995h416c8.48 0 16.64 3.36 22.64 9.36s9.36 14.16 9.36 22.64c0 8.48-3.36 16.64-9.36 22.64s-14.16 9.36-22.64 9.36h-448c-17.68 0-32-14.32-32-32v-847.995c0-8.48 3.36-16.64 9.36-22.64s14.16-9.36 22.64-9.36h847.995c8.48 0 16.64 3.36 22.64 9.36s9.36 14.16 9.36 22.64v448c0 8.48-3.36 16.64-9.36 22.64s-14.16 9.36-22.64 9.36v0.001z" />
<glyph unicode="&#xe902;" glyph-name="merchants" horiz-adv-x="998" d="M976.248 637.179c0.122 1.265 0.122 2.49 0 3.755 0.163 1.102 0.163 2.245 0 3.347l-141.834 296.699c-2.939 6.612-9.51 10.858-16.776 10.817h-653.061c-7.265 0.041-13.837-4.204-16.776-10.817l-139.964-296.323c-0.163-1.102-0.163-2.245 0-3.347-0.122-1.225-0.122-2.49 0-3.714h-1.878v-674.732c0-10.286 8.367-18.654 18.654-18.654h932.979c10.286 0 18.654 8.367 18.654 18.654l0.003 674.315zM472.452 499.503c0-42.693-34.573-77.265-77.266-77.265h-41.428c-42.653 0-77.224 34.571-77.224 77.265v118.648h195.918v-118.648zM239.23 499.503c0-42.693-34.613-77.265-77.266-77.265h-41.428c-42.653 0-77.224 34.571-77.224 77.265v118.648h195.918v-118.648zM509.764 914.484h141.427l50.408-259.020h-191.833l-0.002 259.020zM472.458 655.464h-191.833l50.408 259.020h141.427l-0.002-259.020zM509.764 618.158h195.918v-118.648c0-42.693-34.571-77.265-77.224-77.265h-41.428c-42.693 0-77.266 34.571-77.266 77.265v118.648zM742.985 618.158h195.918v-118.648c0-42.693-34.571-77.265-77.224-77.265h-41.428c-42.653 0-77.266 34.571-77.266 77.265v118.648zM929.593 655.464h-189.962l-50.367 259.020h116.412l123.918-259.020zM176.536 914.484h116.412l-50.367-259.020h-186.608l120.563 259.020zM192.577-18.495v308.245h192.94v-308.245h-192.94zM422.82-18.495v326.938c0 10.286-8.367 18.654-18.654 18.654h-230.243c-10.245-0.204-18.489-8.449-18.694-18.654v-326.938h-111.919v434.040c20.857-19.755 48.49-30.694 77.224-30.612h41.428c38.734 0.122 74.775 19.796 95.918 52.245 21.102-32.449 57.184-52.123 95.878-52.245h41.428c38.734 0.122 74.775 19.796 95.918 52.245 21.142-32.449 57.184-52.123 95.918-52.245h41.428c38.694 0.122 74.775 19.796 95.878 52.245 21.142-32.449 57.184-52.123 95.918-52.245h41.428c28.735-0.082 56.367 10.858 77.224 30.612v-434.040h-516.080zM338.077 162.9h-19.755c-10.245-0.204-18.449-8.449-18.654-18.654 0-10.327 8.326-18.654 18.654-18.654h19.755c10.327 0 18.694 8.327 18.694 18.654 0 10.286-8.367 18.654-18.694 18.654zM829.597 288.287c10.286 0 18.654 8.367 18.654 18.654s-8.367 18.654-18.654 18.654h-313.104c-10.327 0-18.654-8.367-18.654-18.654v-200.046c0-10.286 8.327-18.654 18.654-18.654h313.104c10.286 0 18.654 8.367 18.654 18.654v104.897c-0.204 10.204-8.449 18.449-18.654 18.654-10.327 0-18.694-8.367-18.694-18.654v-86.204h-275.759v162.691l294.453 0.008z" />
<glyph unicode="&#xe903;" glyph-name="sales" horiz-adv-x="1280" d="M541.671 580.585l158.024-196.252 453.518 392.503v-109.88h106.294v293.043h-295.487l-12.958-104.668h132.21l-7.795-7.87-362.815-314.003-158.024 196.252-554.64-465.797 64.788-81.057zM334.975-31.527h147.389v281.379h-147.389zM602.956-31.527h147.389v227.783h-147.389zM80.394-31.527h147.389v147.389h-147.389zM844.138-31.527h147.389v375.173h-147.389zM1115.468-33.537h147.389v522.562h-147.389z" />
<glyph unicode="&#xe904;" glyph-name="stuff" horiz-adv-x="1050" d="M713.37 250.707c-1.198 0.33-2.023 1.487-1.982 2.767v39.313c22.878 29.814 39.972 63.676 50.42 99.809 25.891 25.685 37.413 66.277 43.648 88.163 10.571 35.513 20.193 87.008-7.598 123.886l-1.28 1.693c13.42 64.585 30.145 217.252-85.851 294.635 13.628 13.875 20.978 32.663 20.4 52.114-0.083 1.858-0.991 3.634-2.436 4.873-1.445 1.156-3.304 1.734-5.162 1.569-1.487 0-146.509-16.477-216.385-2.023-71.687 14.908-150.515-39.519-166.711-95.142-27.089-3.551-51.7-17.467-68.714-38.776-31.714-39.023-41.336-101.254-28.865-184.671 0.826-10.571 2.106-21.143 4.006-31.714l-1.28-1.569c-27.791-36.794-17.674-88.288-7.598-123.886 6.235-21.886 17.674-62.479 43.566-88.039v-0.083c10.365-36.339 27.461-70.449 50.42-100.51v-38.693c0.083-1.28-0.785-2.436-2.023-2.767-99.148-23.786-329.943-96.918-329.943-279.602 0-19.904 16.146-36.050 36.050-36.050h971.329c19.904 0 36.050 16.146 36.050 36.050 0 182.684-230.794 255.817-330.070 278.651l0.010 0.005zM521.722 110.636c-61.487-0.867-119.626 28.038-156.055 77.592 15.898 8.837 27.997 23.207 33.944 40.386 16.27-10.736 33.779-19.449 52.114-26.015 45.3-16.022 94.688-16.022 139.986 0 18.253 6.69 35.678 15.485 51.908 26.222 5.905-17.385 18.045-31.961 34.151-40.882-36.504-49.471-94.605-78.252-156.055-77.303h0.007zM300.262 498.394c-12.801 45.134-7.392 61.529-3.056 67.228 3.015 3.84 7.805 5.905 12.677 5.533h3.056c3.716-0.206 6.896 2.602 7.185 6.318 0 0.95 8.052 98.199 65.658 133.22 28.741 17.551 65.741 16.806 109.847-2.023 90.27-38.899 157.492-36.133 198.425-27.048 46.622-34.481 33.2-89.443 30.021-100.222v-1.363c-0.785-2.23-0.413-4.708 1.032-6.566s3.716-2.849 6.029-2.643c5.74 1.032 11.604-0.991 15.444-5.41 4.336-5.699 9.746-22.092-3.056-67.228-16.394-57.813-29.691-63.428-33.408-63.428-3.18-0.206-5.781-2.643-6.235-5.822-9.498-61.611-58.556-138.168-133.834-165.347-31.218-11.067-65.287-11.067-96.505 0-78.666 27.626-124.34 105.094-133.633 165.463-0.454 3.18-3.056 5.575-6.235 5.822-3.716 0.289-17.014 5.699-33.408 63.511l-0.004 0.003z" />
<glyph unicode="&#xe905;" glyph-name="support" horiz-adv-x="829" d="M727.7 197.923h13.015c42.54 0 77.381 34.841 77.381 77.381v203.256c0 42.54-34.841 77.381-77.381 77.381h-13.015c-42.54 0-77.381-34.841-77.381-77.381v-203.256c0-42.579 34.841-77.381 77.381-77.381zM727.7 187.997c6.825 0 13.691-0.317 20.555 0.397 12.222 1.191 23.81 4.564 34.523 10.516 20.715 11.429 36.428 31.429 42.381 54.365 2.579 9.722 2.857 19.524 2.857 29.564v194.088c0 41.072-28.174 78.651-69.127 87.222-9.127 1.905-18.254 1.984-27.46 1.984-10 0-19.96-0.873-29.564-3.968-22.42-7.143-41.984-23.413-52.301-44.761-10.635-21.825-9.127-44.761-9.127-68.174v-168.452c0-12.103 1.111-24.127 5.476-35.516 8.413-21.904 25.080-40.158 46.746-49.603 11.151-5 22.857-7.579 35.039-7.659 12.778-0.079 12.778 19.722 0 19.841-37.5 0.317-67.381 31.032-67.46 68.373v58.333c0 48.016-0.397 95.952 0 143.97 0.079 19.048 8.135 36.984 22.143 49.921 13.968 12.778 31.349 17.54 49.921 17.54 8.333 0 16.468 0.079 24.603-1.984 9.325-2.381 18.175-6.667 25.714-12.619 16.071-12.897 25.397-32.222 25.595-52.857 0.397-47.143 0-94.127 0-141.267v-60.635c0-14.484-3.968-28.095-12.301-40.079-11.112-16.191-30.079-27.183-49.682-28.571-6.151-0.397-12.301-0.198-18.452-0.198-12.857 0.079-12.857-19.762-0.079-19.762l-0.001-0.007zM92.383 197.923h13.015c42.54 0 77.381 34.841 77.381 77.381v203.256c0 42.54-34.841 77.381-77.381 77.381h-13.015c-42.54 0-77.381-34.841-77.381-77.381v-203.256c0-42.579 34.841-77.381 77.381-77.381zM92.383 187.997c6.825 0 13.691-0.317 20.555 0.397 12.222 1.191 23.81 4.564 34.523 10.516 20.715 11.429 36.428 31.429 42.381 54.365 2.579 9.722 2.857 19.524 2.857 29.564v194.088c0 41.072-28.174 78.651-69.127 87.222-9.127 1.905-18.254 1.984-27.46 1.984-10 0-19.96-0.873-29.564-3.968-22.42-7.143-41.984-23.413-52.301-44.761-10.635-21.825-9.127-44.761-9.127-68.174v-168.452c0-12.103 1.111-24.127 5.476-35.516 8.413-21.904 25.080-40.158 46.746-49.603 11.151-5 22.857-7.579 35.039-7.659 12.778-0.079 12.778 19.722 0 19.841-37.5 0.317-67.381 31.032-67.46 68.373v58.333c0 48.016-0.397 95.952 0 143.97 0.079 19.048 8.135 36.984 22.143 49.921 13.968 12.778 31.349 17.54 49.921 17.54 8.333 0 16.468 0.079 24.603-1.984 9.325-2.381 18.175-6.667 25.714-12.619 16.071-12.897 25.397-32.222 25.595-52.857 0.397-47.143 0-94.127 0-141.267v-60.635c0-14.484-3.968-28.095-12.301-40.079-11.112-16.191-30.079-27.183-49.682-28.571-6.151-0.397-12.301-0.198-18.452-0.198-12.857 0.079-12.857-19.762-0.079-19.762l-0.001-0.007zM64.64 275.302v234.529c0 21.746 0.476 43.333 3.492 65-0.397-2.698-0.714-5.238-1.111-7.937 4.564 33.333 13.492 65.873 26.587 96.825-0.992-2.381-1.984-4.762-2.976-7.143 7.54 17.738 16.468 35 26.587 51.508 4.96 8.016 10.119 15.794 15.675 23.413 1.389 1.984 2.857 3.889 4.286 5.754 0.476 0.714 1.111 1.389 1.587 2.063 3.175 4.286-4.762-6.032-1.508-1.905 2.976 3.77 5.952 7.54 9.127 11.112 12.222 14.484 25.595 28.095 39.762 40.556 3.492 2.976 6.944 5.952 10.516 8.929 1.667 1.389 3.373 2.778 5.040 4.048 1.667 1.389 5.952 4.444-1.905-1.389 1.111 0.794 2.063 1.587 3.175 2.381 7.619 5.754 15.555 11.31 23.73 16.468 18.175 11.587 37.223 21.627 57.064 30.079-2.381-0.992-4.762-1.984-7.143-2.976 30.953 13.096 63.492 22.024 96.825 26.587-2.698-0.397-5.238-0.714-7.937-1.111 33.809 4.564 68.254 4.564 102.065 0-2.698 0.397-5.238 0.714-7.937 1.111 33.333-4.564 65.873-13.492 96.825-26.587-2.381 0.992-4.762 1.984-7.143 2.976 17.738-7.54 35-16.468 51.508-26.587 8.016-4.96 15.794-10.119 23.413-15.675 1.984-1.389 3.889-2.857 5.754-4.286 0.714-0.476 1.389-1.111 2.063-1.587 4.286-3.175-6.032 4.762-1.905 1.508 3.77-2.976 7.54-5.952 11.112-9.127 14.484-12.222 28.095-25.595 40.556-39.762 2.976-3.492 5.952-6.944 8.929-10.516 1.389-1.667 2.778-3.373 4.048-5.040 1.389-1.667 4.444-5.952-1.389 1.905 0.794-1.111 1.587-2.063 2.381-3.175 5.754-7.619 11.31-15.555 16.468-23.73 11.587-18.175 21.627-37.223 30.079-57.064-0.992 2.381-1.984 4.762-2.976 7.143 13.096-30.953 22.024-63.492 26.587-96.825-0.397 2.698-0.714 5.238-1.111 7.937 2.976-22.222 3.492-44.444 3.492-66.746v-251.027c0-19.048 0.794-38.492-1.667-57.46 0.397 2.698 0.714 5.238 1.111 7.937-2.183-15.476-6.349-30.635-12.301-45.159 0.992 2.381 1.984 4.762 2.976 7.143-4.564-10.913-10.238-21.35-16.746-31.151-1.587-2.381-3.254-4.683-4.881-6.944-3.651-5.159 4.365 5.357 1.111 1.389-0.794-0.992-1.587-2.064-2.46-3.095-3.77-4.564-7.619-8.81-11.826-13.015-4.167-4.167-8.532-8.135-13.015-11.826-0.992-0.794-1.984-1.667-3.095-2.46-4.048-3.254 5.873 4.365 1.905 1.508-2.46-1.786-4.96-3.571-7.46-5.238-9.841-6.548-20.238-12.222-31.151-16.746 2.381 0.992 4.762 1.984 7.143 2.976-14.484-5.952-29.564-10.119-45.159-12.301 2.698 0.397 5.238 0.714 7.937 1.111-16.071-2.182-32.341-1.667-48.492-1.667h-75.715c-15.555 0-30.476-13.691-29.762-29.762 0.714-16.191 13.096-29.762 29.762-29.762h75.714c9.524 0 19.127-0.198 28.651 0.079 27.857 0.714 54.445 7.143 79.96 17.976 45.040 19.127 83.73 55.952 104.96 100.080 12.103 25 19.127 50.992 21.508 78.651 0.595 7.341 0.595 14.682 0.595 22.024v292.738c-0.079 48.73-8.611 97.936-26.111 143.451-17.738 46.428-43.056 88.889-75.595 126.507-30.635 35.437-68.055 65.794-108.932 88.81-41.667 23.413-87.778 39.881-135.121 47.222-51.191 7.857-102.695 6.825-153.448-4.048-46.428-10-91.666-28.77-131.627-54.286-40.675-25.992-76.468-58.65-105.956-96.825-29.762-38.492-52.58-81.667-67.262-128.091-12.698-39.96-18.849-82.223-18.849-124.13v-246.906c0-15.555 13.691-30.476 29.762-29.762 16.15 0.317 29.841 12.738 29.841 29.404l0.002-0.007zM516.51 42.047c0-33.73-27.579-61.31-61.31-61.31h-66.667c-16.866 0-32.143 6.825-43.254 17.976-11.112 11.112-17.976 26.667-17.976 43.532 0 33.73 27.579 61.508 61.31 61.508h66.587c16.866 0 32.143-7.143 43.254-18.254s18.055-26.587 18.055-43.452zM496.67 42.047c0-1.389 0-2.778-0.079-4.167 0-0.476-0.079-0.873-0.079-1.389-0.198-2.183-0.198-1.786 0.198 1.27 0.397-0.198-1.191-5.952-1.389-6.548s-1.508-6.151-2.063-6.27c0.317 0.794 0.714 1.587 0.992 2.262-0.397-0.794-0.714-1.587-1.111-2.381-0.595-1.191-1.191-2.262-1.905-3.492-0.714-1.111-1.27-2.182-2.063-3.254-0.198-0.397-0.476-0.714-0.714-1.111-0.992-1.389-0.992-1.389 0-0.079 0.317 0.317 0.476 0.714 0.794 0.992-0.476-0.714-1.111-1.27-1.667-1.984-0.873-0.992-1.667-1.905-2.579-2.857-1.508-1.587-3.175-2.976-4.762-4.365-3.175-2.778 2.857 1.587 0.397 0.397-1.27-0.714-2.46-1.667-3.77-2.46-1.905-1.111-3.77-2.063-5.754-3.095-4.048-2.063 4.286 1.389-0.079 0-1.111-0.317-2.064-0.714-3.095-1.111-2.381-0.714-4.683-1.191-7.143-1.667-3.889-0.873 1.27 0.198 1.27 0.079-0.198-0.476-4.881-0.397-5.476-0.397-2.976-0.079-5.873 0-8.81 0h-60.714c-1.389 0-2.698 0.198-4.048 0.198-1.508 0.198-1.111 0.079 1.27-0.198-0.992 0.198-2.063 0.397-3.095 0.595-2.579 0.476-4.96 1.27-7.54 2.063-4.881 1.508 3.571-1.984-0.992 0.317-1.111 0.595-2.262 1.111-3.373 1.786-2.262 1.27-5.159 2.698-7.063 4.564 3.095-2.976 1.111-0.873 0.476-0.317-1.508 1.389-2.976 2.698-4.365 4.167-0.873 0.873-1.667 1.905-2.579 2.857-2.063 2.182 2.46-3.889-0.198 0.198-1.389 2.182-2.778 4.286-3.968 6.548-0.714 1.27-1.508 2.698-1.984 4.167 1.667-4.762 0.079 0.317-0.198 0.992-0.873 2.778-2.262 6.27-2.183 9.127-0.079-4.286 0.198-1.587 0.079-0.476 0 1.587-0.198 3.254-0.198 4.881 0 0.714-0.198 6.548 0.397 6.825-0.079-0.873-0.198-1.667-0.397-2.579 0.079 0.873 0.317 1.786 0.476 2.698 0.198 0.873 0.397 1.786 0.595 2.579 0.317 1.27 0.714 2.579 1.111 3.77 0.198 0.595 1.587 5.754 0.794 2.579-0.714-2.976 0.317 0.595 0.595 1.19 0.595 1.191 1.191 2.262 1.905 3.492 0.397 0.794 2.976 5.556 3.571 5.476-0.476-0.714-0.992-1.27-1.508-1.984 0.476 0.714 1.111 1.27 1.667 1.984 0.595 0.714 1.111 1.27 1.667 1.905 1.786 1.905 3.651 3.571 5.635 5.238 3.373 2.976-3.651-2.381 0.079 0 1.111 0.714 2.183 1.508 3.254 2.064 1.905 1.111 3.77 2.063 5.754 3.095 3.77 1.984-3.175-0.794-0.476-0.198 0.992 0.198 2.063 0.794 3.095 1.111 2.579 0.794 5.159 1.389 7.738 1.905 4.564 0.992-4.683-0.317 0.079 0 0.873 0.079 1.786 0.079 2.698 0.198 0.992 0 2.063 0.079 3.095 0.079h67.262c1.389 0 2.698-0.079 4.048-0.198 2.262-0.199 2.063-0.199-0.476 0.079 0.992-0.198 2.064-0.397 3.095-0.595 2.579-0.595 6.825-0.992 8.929-2.698-2.698 2.063-1.786 0.873-0.476 0.199 1.786-0.873 3.651-1.786 5.357-2.857 1.111-0.714 2.183-1.389 3.175-2.063 4.167-2.857-1.389 1.587 1.389-1.111 2.183-2.063 4.365-4.286 6.429-6.429 3.492-3.571-2.063 3.373 0.595-0.794 0.794-1.27 1.667-2.46 2.46-3.889 0.794-1.27 1.508-2.698 2.182-4.048 0.714-1.27 2.976-4.167 0.476-0.873 1.587-2.063 2.063-6.349 2.698-8.929 0.198-1.111 1.905-5.635 0.317-0.992 0.595-1.508 0.278-4.167 0.278-6.071 0.079-10.396 9.048-20.318 19.841-19.841 10.635 0.476 19.96 8.73 19.843 19.841-0.398 30.079-17.542 59.603-45.239 72.619-11.587 5.476-23.492 8.413-36.428 8.532h-57.024c-17.064 0-33.254-1.786-48.492-10.238-23.334-12.778-38.095-36.588-41.191-62.699-3.571-30.159 11.706-59.603 36.707-76.309 15.992-10.635 34.127-13.015 52.698-13.015h43.73c18.333 0 35.635 0.873 52.38 9.603 26.269 13.81 42.54 42.063 42.858 71.508 0.079 10.396-9.247 20.317-19.842 19.841-10.794-0.476-19.762-8.73-19.841-19.841h-0.001z" />
<glyph unicode="&#xe906;" glyph-name="delete" d="M179.355 85.197c0-56.923 49.081-103.496 109.068-103.496h436.273c59.988 0 109.068 46.573 109.068 103.496v620.975h-654.41v-620.975zM264.565 626.735h485.695v-533.821h-485.695v533.821zM682.989 893.645l-51.748 50.84h-258.74l-51.748-50.84h-181.118v-101.68h724.471v101.68h-181.118z" />
<glyph unicode="&#xe907;" glyph-name="edit" d="M665.538 782.986c38.215 34.393 97.075 31.295 131.468-6.919v0l152.395-169.328c33.121-36.801 31.641-93.090-3.369-128.1v0l-371.972-371.972h-496.485v62.061h186.182v186.182l396.142 422.552c1.801 1.921 3.682 3.764 5.639 5.525zM356.848 292.849v-124.121h124.121l-124.121 124.121zM663.387 630.417l-275.508-275.508 155.152-155.152 275.508 275.508c36.354 36.354 36.354 95.296 0 131.65l-23.501 23.501c-36.354 36.354-95.296 36.354-131.65 0z" />
<glyph unicode="&#xe908;" glyph-name="filter" d="M36.634 959.954c-28.317 0-45.875-30.796-31.516-55.194l397.155-529.902v-402.234c0-27.196 28.597-44.875 52.914-32.716l146.262 73.152c12.398 6.199 20.198 18.837 20.198 32.716v329.128l397.155 529.902c14.398 24.397-3.16 55.194-31.516 55.194l-950.652-0.046zM100.746 886.802h822.549l-369.643-483.346c-3.32-5.639-5.079-12.079-5.039-18.598v-316.524l-73.152-36.556v353.077c0 6.559-1.76 12.958-5.039 18.598l-369.675 483.349z" />
<glyph unicode="&#xe909;" glyph-name="search" d="M398.927 140.779c107.867 0 205.331 43.896 276.802 114.39l311.875-319.17 36.396 37.247-311.875 321.816c54.568 70.494 87.055 158.228 87.055 255.322 0 226.079-179.341 409.614-400.253 409.614s-398.927-184.879-398.927-409.614c0-224.775 179.341-409.614 398.927-409.614v0.008zM398.927 905.457c192.336 0 348.273-159.585 348.273-355.063s-155.938-356.419-348.273-356.419c-192.336 0-346.948 159.585-346.948 356.419s155.938 355.063 346.948 355.063z" />
<glyph unicode="&#xe90a;" glyph-name="preview" horiz-adv-x="1638" d="M819.2-9.387c-441.685 0-789.163 416.427-803.499 434.859-20.48 25.259-20.48 61.44 0 86.699 14.336 17.749 361.813 434.859 803.499 434.859s789.163-417.109 803.499-434.859v0c20.48-25.259 20.48-61.44 0-86.699-14.336-18.432-361.813-434.859-803.499-434.859zM160.427 468.48c96.256-100.352 359.083-341.333 658.773-341.333s562.517 240.981 658.773 341.333c-96.256 100.352-359.083 341.333-658.773 341.333s-562.517-240.981-658.773-341.333zM819.2 195.413c-72.363 0-141.995 28.672-193.195 79.872s-79.872 120.832-79.872 193.195c0 72.363 28.672 141.995 79.872 193.195s120.832 79.872 193.195 79.872c72.363 0 141.995-28.672 193.195-79.872s79.872-120.832 79.872-193.195c0-72.363-28.672-141.995-79.872-193.195s-120.832-79.872-193.195-79.872zM819.2 605.013c-55.296 0-105.131-33.451-126.293-83.968-21.163-51.2-9.557-109.909 29.355-148.821s97.621-50.517 148.821-29.355c51.2 21.163 83.968 70.997 83.968 126.293 0 36.181-14.336 70.997-40.277 96.256-25.259 25.941-60.075 40.277-96.256 40.277z" />
<glyph unicode="&#xe90b;" glyph-name="export" d="M926.72 937.984c20.992 20.992 54.784 20.992 75.264 0 20.992-20.992 20.992-54.784 0-75.264l-479.744-480.256c-20.992-20.992-54.784-20.992-75.264 0-20.992 20.992-20.992 54.784 0 75.264zM910.848 846.848h-213.504c-29.696 0-53.248 24.064-53.248 53.248 0 29.696 24.064 53.248 53.248 53.248h266.752c29.696 0 53.248-24.064 53.248-53.248v-266.752c0-29.696-24.064-53.248-53.248-53.248-29.696 0-53.248 24.064-53.248 53.248zM804.352 393.728c0 29.696 24.064 53.248 53.248 53.248 29.696 0 53.248-24.064 53.248-53.248v-300.032c0-84.48-68.608-153.088-153.6-153.088h-600.064c-84.48 0-153.088 68.608-153.088 153.088v600.064c0 84.48 68.608 153.088 153.088 153.088h325.12c29.696 0 53.248-24.064 53.248-53.248 0-29.696-24.064-53.248-53.248-53.248h-325.12c-25.6 0-46.592-20.992-46.592-46.592v-600.064c0-25.6 20.992-46.592 46.592-46.592h600.064c25.6 0 46.592 20.992 46.592 46.592z" />
<glyph unicode="&#xe90c;" glyph-name="payment" horiz-adv-x="1038" d="M58.35 960c-28.86 0-52.649-23.392-52.649-51.931v-809.335c0-28.54 23.788-52.064 52.649-52.064h67.181c22.811 0 22.811 33.828 0 33.828h-67.181c-10.5 0-18.44 7.852-18.44 18.235v809.335c0 10.384 7.94 18.235 18.44 18.235h546.098v-196.032l-34.242-33.828-39.253 38.816c-6.686 6.64-17.567 6.64-24.253 0l-39.152-38.816-39.253 38.816c-6.671 6.556-17.448 6.556-24.12 0l-39.253-38.816-34.208 33.828v145.191c0 22.558-34.242 22.558-34.242 0v-152.194c0.003-4.5 1.816-8.82 5.044-11.992l51.279-50.676c6.686-6.64 17.567-6.64 24.253 0l39.253 38.816 39.152-38.816c6.686-6.64 17.534-6.64 24.22 0l39.153 38.717 39.253-38.717c6.671-6.557 17.448-6.557 24.119 0l51.413 50.676c3.228 3.171 5.041 7.492 5.044 11.992v203.035h238.122c10.501 0 18.441-7.852 18.441-18.235v-590.707c-2.090-24.454 36.164-24.454 34.075 0v590.707c0 28.539-23.655 51.931-52.515 51.931h-818.428zM761.525-49.793l133.693 25.305v-13.379c-0.034-9.344 7.588-16.947 17.037-16.98h102.658c9.449 0.034 17.074 7.636 17.038 16.98v287.573c-0.034 9.296-7.637 16.815-17.038 16.848h-102.658c-9.4-0.034-17.004-7.552-17.037-16.848v-18.401c-36.337 18.842-79.976 18.401-119.829 18.401h-85.488c-37.607 0-68.417-30.5-68.417-67.69s30.81-67.69 68.417-67.69h68.45v-16.848c0-9.663-7.4-16.98-17.171-16.98h-513.125c-9.772 0-17.071 7.316-17.071 16.98v270.56c0 9.663 7.299 17.014 17.071 17.014h513.125c9.77 0 17.171-7.35 17.171-17.014v-67.656c0-22.558 34.208-22.558 34.208 0v67.656c0 27.819-23.249 50.841-51.379 50.841h-513.125c-28.132 0-51.279-23.023-51.279-50.841v-270.56c0-27.818 23.147-50.808 51.279-50.808h319.534l115.704-81.68c21.229-13.124 55.275-22.921 98.232-14.783zM484.685 351.455c-8.554 0-17.138-5.638-17.138-16.915v-20.35c-19.799-7.070-34.208-25.752-34.208-47.637 0-27.824 23.142-50.709 51.279-50.709 9.648 0 17.171-7.439 17.171-16.98s-7.523-16.848-17.171-16.848c-9.65 0-17.071 7.306-17.071 16.848 0 22.557-34.208 22.557-34.208 0 0-21.884 14.41-40.501 34.208-47.538v-19.986c0-22.558 34.242-22.558 34.242 0v20.019c19.781 7.065 34.208 25.657 34.208 47.505 0 27.824-23.243 50.841-51.379 50.841-9.65 0-17.071 7.306-17.071 16.848s7.422 16.98 17.071 16.98c9.649 0 17.171-7.439 17.171-16.98 0-22.557 34.208-22.557 34.208 0 0 21.848-14.428 40.506-34.208 47.604v20.383c0 11.279-8.55 16.915-17.104 16.915v0zM313.61 351.138c-9.446-0.004-17.103-7.576-17.104-16.917 0-18.883-15.114-33.828-34.208-33.828-9.446-0.001-17.104-7.573-17.104-16.915v-101.485c0-9.341 7.658-16.913 17.104-16.914 19.094 0 34.208-14.946 34.208-33.828 0.001-9.341 7.658-16.913 17.104-16.916h102.625c23.13-0.317 23.13 34.153 0 33.831h-87.759c-6.309 23.323-24.261 42.39-49.074 48.628v71.819c23.585 6.239 42.632 24.181 49.074 48.694h87.759c23.132-0.32 23.132 34.154 0 33.831h-102.625zM553.068 351.135c-23.132 0.32-23.132-34.154 0-33.828h87.759c2.87-10.749 8.378-20.835 15.735-28.774 15.412-16.628 40.633 6.233 25.222 22.86-5.592 6.035-8.986 13.926-8.986 22.827-0.001 9.341-7.658 16.913-17.104 16.915h-102.625zM929.293 232.67h68.45v-253.712h-68.45v253.712zM689.902 215.822h85.488c48.612 0 91.426-1.132 119.829-25.57v-180.307l-140.107-26.561c-34.495-6.533-59.924 1.873-73.027 9.911l-75.566 53.353h134.662c28.131 0 51.379 22.99 51.379 50.808v33.862c-0.034 9.344-7.722 16.884-17.171 16.848h-85.488c-19.247 0-34.208 14.795-34.208 33.828s14.961 33.828 34.208 33.828v0zM553.068 148.166c-23.129 0.32-23.129-34.151 0-33.828h34.208c23.129-0.32 23.129 34.151 0 33.828h-34.208z" />
<glyph unicode="&#xe90d;" glyph-name="systems-health" d="M938.667 860.444c0-7.855-6.368-14.222-14.222-14.222s-14.222 6.368-14.222 14.222c0 7.855 6.368 14.222 14.222 14.222s14.222-6.368 14.222-14.222zM867.556 860.444c0-7.855-6.368-14.222-14.222-14.222s-14.222 6.368-14.222 14.222c0 7.855 6.368 14.222 14.222 14.222s14.222-6.368 14.222-14.222zM810.667 860.444c0-7.855-6.368-14.222-14.222-14.222s-14.222 6.368-14.222 14.222c0 7.855 6.368 14.222 14.222 14.222s14.222-6.368 14.222-14.222zM968 960h-912c-30.928 0-56-25.072-56-56v-912c0-30.928 25.072-56 56-56h912c30.928 0 56 25.072 56 56v912c0 30.928-25.072 56-56 56zM56 928h912c13.255 0 24-10.745 24-24v-104h-960v104c0 13.255 10.745 24 24 24zM968-32h-912c-13.255 0-24 10.745-24 24v776h960v-776c0-13.255-10.745-24-24-24zM311.654 535.421c3.213 7.885-0.056 17.080-7.347 20.662l-11.389 5.047c0.016 2.645-0.205 5.286-0.661 7.886-2.734 17.045-14.785 30.631-30.511 34.4s-32.017-3.025-41.246-17.203c-9.229-14.177-9.571-32.933-0.865-47.487s24.736-22.027 40.588-18.921c8.099 1.578 15.529 5.855 21.234 12.224l11.389-5.126c1.8-0.77 3.719-1.172 5.658-1.183 5.78 0.174 10.928 3.971 13.152 9.7zM254.491 550.8v0c-2.693-0.487-5.458 0.163-7.715 1.814-2.229 1.678-3.758 4.226-4.262 7.098-0.358 2.762 0.244 5.569 1.69 7.886 1.564 2.392 3.937 4.034 6.613 4.574h1.837c2.102 0.013 4.156-0.676 5.878-1.972 2.229-1.678 3.758-4.226 4.262-7.098 0.358-2.762-0.244-5.569-1.69-7.886-1.537-2.283-3.82-3.859-6.392-4.416h-0.22zM354.525 646v0c-50.364 50.401-129.321 58.198-188.571 18.622s-82.284-115.5-55.011-181.326c27.272-65.826 97.252-103.213 167.131-89.291s120.187 75.274 120.149 146.526c0.036 39.584-15.721 77.546-43.776 105.47h0.079zM177.613 446.848l8.409 8.567c4.641 3.774 6.737 9.855 5.409 15.687s-5.853 10.405-11.671 11.796c-5.818 1.391-11.921-0.641-15.744-5.241l-8.645-8.645c-12.621 16.208-20.752 35.453-23.578 55.8h12.339c8.681 0 15.718 7.037 15.718 15.718s-7.037 15.718-15.718 15.718h-11.946c2.681 20.255 10.651 39.447 23.106 55.643l8.488-8.488c2.953-2.971 6.971-4.64 11.16-4.637v0c6.372-0.005 12.116 3.837 14.544 9.727s1.061 12.664-3.463 17.151l-8.645 8.567c16.244 12.462 35.495 20.407 55.801 23.027v-12.103c0-8.681 7.037-15.718 15.718-15.718s15.718 7.037 15.718 15.718v12.103c20.262-2.876 39.418-11.004 55.565-23.578l-8.409-8.016c-3.973-4.001-5.51-9.818-4.031-15.259s5.748-9.681 11.199-11.121c5.452-1.44 11.258 0.137 15.231 4.139l8.409 8.409c12.383-16.201 20.32-35.354 23.028-55.564h-11.867c-8.681 0-15.718-7.037-15.718-15.718s7.037-15.718 15.718-15.718h11.867c-0.643-4.88-1.615-9.711-2.908-14.461l-11.16 4.637c-7.882 2.799-16.576-1.065-19.779-8.792s0.205-16.609 7.755-20.208l11.16-4.637c-2.339-4.235-4.965-8.305-7.859-12.182l-8.802 8.488c-6.142 6.142-16.1 6.142-22.242 0s-6.142-16.1 0-22.242l8.488-8.488c-42.053-32.328-100.592-32.328-142.645 0v-0.079zM364.585 279.305v0c-45.947 56.298-125.751 71.346-189.045 35.646s-91.699-111.779-67.287-180.223c24.412-68.444 94.552-109.377 166.152-96.964s123.868 74.566 123.817 147.233c0 34.361-11.855 67.67-33.559 94.309h-0.079zM349.26 246.612c8.558-14 14.099-29.632 16.268-45.897h-72.54l56.271 45.897zM248.899 67.111c-52.926-0.081-99.42 35.121-113.697 86.084s7.16 105.196 52.426 132.623c45.265 27.427 103.262 21.325 141.828-14.922l-90.616-73.718c-5.171-4.216-7.117-11.237-4.854-17.513s8.242-10.44 14.913-10.386h116.551c-7.856-58.398-57.626-102.026-116.551-102.168v0zM908.261 718.222h-436.966c-8.938 0-16.184-7.228-16.184-16.144v-266.378c0-8.916 7.246-16.144 16.184-16.144h436.966c8.938 0 16.184 7.228 16.184 16.144v266.378c0 8.916-7.246 16.144-16.184 16.144zM892.077 685.934v-24.216l-77.197-54.729-75.336 22.037c-5.818 1.624-12.058-0.118-16.184-4.52l-74.931-80.721-80.029 35.84c-5.514 2.458-11.941 1.649-16.669-2.099l-64.25-50.612v159.020h404.598zM487.479 451.844v33.983l76.55 60.298 81.486-36.405c6.33-2.804 13.747-1.279 18.45 3.794l76.064 81.447 73.313-21.391c4.754-1.385 9.882-0.523 13.918 2.341l64.736 46.011v-170.079h-404.517zM924.444 274.973c0.036 30.588-21.919 56.904-52.348 62.745s-60.782-10.433-72.37-38.803l-46.021 10.455c-5.559 32.733-35.608 55.805-69.131 53.078s-59.337-30.343-59.388-63.533c0.041-5.055 0.665-10.088 1.86-15.004l-59.69-45.33c-18.735 20.022-48.284 26.103-73.568 15.141s-40.731-36.551-38.456-63.709c2.275-27.158 21.768-49.898 48.533-56.616v-65.92h-32.352c-8.934 0-16.176-7.146-16.176-15.961s7.242-15.961 16.176-15.961h436.755c8.934 0 16.176 7.146 16.176 15.961s-7.242 15.961-16.176 15.961h-32.352v145.726c28.551 7.274 48.506 32.674 48.528 61.77zM859.74 306.896c17.868 0 32.352-14.292 32.352-31.922s-14.485-31.922-32.352-31.922c-17.868 0-32.352 14.292-32.352 31.922s14.485 31.922 32.352 31.922zM689.891 330.838c17.868 0 32.352-14.292 32.352-31.922s-14.485-31.922-32.352-31.922c-17.868 0-32.352 14.292-32.352 31.922s14.485 31.922 32.352 31.922zM487.69 195.167c0 17.63 14.485 31.922 32.352 31.922s32.352-14.292 32.352-31.922c0-17.63-14.485-31.922-32.352-31.922s-32.352 14.292-32.352 31.922zM536.218 133.398c28.551 7.274 48.506 32.674 48.528 61.77-0.041 5.055-0.665 10.088-1.86 15.004l59.69 45.33c8.394-8.923 19.198-15.291 31.139-18.355v-169.667h-137.497v65.92zM706.067 67.478v169.667c20.601 5.261 37.264 20.18 44.565 39.903l44.97-10.056c3.324-25.925 22.325-47.234 47.962-53.789v-145.726h-137.497z" />
<glyph unicode="&#xe90e;" glyph-name="access-rights" d="M512 960c-82.342 0-149.333-66.991-149.333-149.333s66.991-149.333 149.333-149.333c82.342 0 149.333 66.991 149.333 149.333s-66.991 149.333-149.333 149.333zM512 704c-58.816 0-106.667 47.851-106.667 106.667s47.851 106.667 106.667 106.667c58.816 0 106.667-47.851 106.667-106.667s-47.851-106.667-106.667-106.667zM874.667 661.333c82.342 0 149.333 66.991 149.333 149.333s-66.991 149.333-149.333 149.333c-82.345 0-149.333-66.991-149.333-149.333s66.989-149.333 149.333-149.333zM874.667 917.333c58.816 0 106.667-47.851 106.667-106.667s-47.851-106.667-106.667-106.667c-58.816 0-106.667 47.851-106.667 106.667s47.851 106.667 106.667 106.667zM149.333 597.333c-82.342 0-149.333-66.991-149.333-149.333s66.991-149.333 149.333-149.333c82.342 0 149.333 66.991 149.333 149.333s-66.991 149.333-149.333 149.333zM149.333 341.333c-58.816 0-106.667 47.851-106.667 106.667s47.851 106.667 106.667 106.667c58.816 0 106.667-47.851 106.667-106.667s-47.851-106.667-106.667-106.667zM661.333 448c0 82.342-66.991 149.333-149.333 149.333-33.493 0-64.446-11.085-89.385-29.777l-153.728 153.728c18.694 24.937 29.779 55.889 29.779 89.382 0 82.342-66.991 149.333-149.333 149.333s-149.333-66.991-149.333-149.333c0-82.342 66.991-149.333 149.333-149.333 33.493 0 64.446 11.085 89.385 29.777l153.728-153.728c-18.694-24.937-29.779-55.889-29.779-89.382 0-75.098 55.731-137.399 128-147.785v-67.095c-72.269-10.385-128-72.687-128-147.785 0-82.342 66.991-149.333 149.333-149.333s149.333 66.991 149.333 149.333c0 75.098-55.731 137.397-128 147.785v67.095c72.269 10.387 128 72.687 128 147.785zM512 554.667c58.816 0 106.667-47.851 106.667-106.667 0-51.511-36.704-94.611-85.333-104.521v104.521c0 5.658-2.249 11.085-6.249 15.085l-73.865 73.865c16.868 11.183 37.071 17.717 58.78 17.717zM149.333 704c-58.816 0-106.667 47.851-106.667 106.667s47.851 106.667 106.667 106.667c58.816 0 106.667-47.851 106.667-106.667 0-21.709-6.534-41.911-17.717-58.78l-73.865 73.865c-8.331 8.331-21.839 8.331-30.172 0s-8.331-21.839 0-30.172l73.865-73.865c-16.866-11.181-37.069-17.715-58.778-17.715zM405.333 448c0 21.709 6.534 41.911 17.717 58.78l67.616-67.618v-95.684c-48.629 9.911-85.333 53.011-85.333 104.523zM618.667 85.333c0-58.816-47.851-106.667-106.667-106.667s-106.667 47.851-106.667 106.667c0 51.511 36.704 94.611 85.333 104.521v-125.854c0-11.78 9.551-21.333 21.333-21.333 11.78 0 21.333 9.553 21.333 21.333v125.854c48.629-9.909 85.333-53.009 85.333-104.521zM874.667 597.333c-82.345 0-149.333-66.991-149.333-149.333s66.989-149.333 149.333-149.333c82.342 0 149.333 66.991 149.333 149.333s-66.991 149.333-149.333 149.333zM874.667 341.333c-58.816 0-106.667 47.851-106.667 106.667s47.851 106.667 106.667 106.667c58.816 0 106.667-47.851 106.667-106.667s-47.851-106.667-106.667-106.667zM149.333 234.667c-82.342 0-149.333-66.991-149.333-149.333s66.991-149.333 149.333-149.333c82.342 0 149.333 66.991 149.333 149.333s-66.991 149.333-149.333 149.333zM149.333-21.333c-58.816 0-106.667 47.851-106.667 106.667s47.851 106.667 106.667 106.667c58.816 0 106.667-47.851 106.667-106.667s-47.851-106.667-106.667-106.667zM874.667 234.667c-82.345 0-149.333-66.991-149.333-149.333s66.989-149.333 149.333-149.333c82.342 0 149.333 66.991 149.333 149.333s-66.991 149.333-149.333 149.333zM874.667-21.333c-58.816 0-106.667 47.851-106.667 106.667s47.851 106.667 106.667 106.667c58.816 0 106.667-47.851 106.667-106.667s-47.851-106.667-106.667-106.667z" />
<glyph unicode="&#xe90f;" glyph-name="bluetooth-off" horiz-adv-x="883" d="M267.726-61.289c9.854-4.695 21.501-3.21 29.895 3.812l292.455 244.622c6.507 5.444 10.252 13.557 10.2 22.098-0.053 8.541-3.896 16.607-10.469 21.969l-265.795 216.789 265.795 216.789c6.573 5.362 10.416 13.428 10.469 21.969 0.051 8.541-3.693 16.654-10.2 22.098l-292.455 244.623c-8.395 7.018-20.041 8.503-29.895 3.811s-16.144-14.717-16.146-25.733v-424.478l-205.803 167.867c-12.091 9.861-29.796 7.941-39.545-4.289s-7.851-30.139 4.24-40l223.944-182.656-223.944-182.656c-7.821-6.379-11.684-16.495-10.133-26.536s8.28-18.482 17.652-22.144c9.372-3.662 19.964-1.988 27.785 4.391l205.803 167.867v-424.478c-0.003-11.018 6.289-21.046 16.147-25.734zM307.82 871.124l219.873-183.911-219.873-179.345v363.256zM307.82 388.134l219.873-179.345-219.873-183.911v363.256z" />
<glyph unicode="&#xe910;" glyph-name="bluetooth-active" horiz-adv-x="883" d="M267.726-61.289c9.854-4.695 21.501-3.21 29.895 3.812l292.455 244.622c6.507 5.444 10.252 13.557 10.2 22.098-0.053 8.541-3.896 16.607-10.469 21.969l-265.795 216.789 265.795 216.789c6.573 5.362 10.416 13.428 10.469 21.969 0.051 8.541-3.693 16.654-10.2 22.098l-292.455 244.623c-8.395 7.018-20.041 8.503-29.895 3.811s-16.144-14.717-16.146-25.733v-424.478l-205.803 167.867c-12.091 9.861-29.796 7.941-39.545-4.289s-7.851-30.139 4.24-40l223.944-182.656-223.944-182.656c-7.821-6.379-11.684-16.495-10.133-26.536s8.28-18.482 17.652-22.144c9.372-3.662 19.964-1.988 27.785 4.391l205.803 167.867v-424.478c-0.003-11.018 6.289-21.046 16.147-25.734zM307.82 871.124l219.873-183.911-219.873-179.345v363.256zM307.82 388.134l219.873-179.345-219.873-183.911v363.256zM780.246 712.828l-38.728-41.376c115.324-123.493 115.324-323.411 0-446.904l38.728-41.375c136.684 146.358 136.684 383.298 0 529.655zM676.771 289.103c86.329 87.805 86.329 229.988 0 317.793l-41.185-41.821c63.575-64.709 63.575-169.442 0-234.151l41.185-41.821z" />
<glyph unicode="&#xe911;" d="M512.032 960c282.748 0 511.968-229.22 511.968-512.032 0-282.748-229.22-511.968-512-511.968s-512 229.22-512 511.968c0 282.748 229.22 512.032 512.032 512.032z" />
<glyph unicode="&#xe912;" d="M707.236 578.101c-17.358-59.126-53.707-101.164-107.383-126.084-28.439-12.444-58.447-23.372-88.455-32.69-71.097-23.372-126.342-66.959-159.521-133.886-12.65-24.92-20.529-49.808-30.008-74.728-4.74-14.023-9.48-29.563-14.219-45.166-3.139-7.77-7.878-9.317-11.049-3.095-11.049 14.023-20.529 29.594-28.439 45.166-3.139 4.643 1.601 13.992 4.74 21.793 23.699 49.808 58.447 93.395 96.334 135.433 31.61 35.785 67.927 70.054 105.846 98.069 42.626 31.142 71.065 73.181 93.195 121.442 22.098 51.356 36.317 104.291 47.366 157.227 3.139 10.897 6.309 21.793 9.48 31.142 3.139 10.897 6.309 10.897 15.789 6.222 23.699-12.444 41.057-31.142 52.106-56.031 18.959-38.943 22.098-79.403 17.39-122.989-1.601-7.801-3.171-15.571-3.171-21.793z" />
<glyph unicode="&#xe913;" glyph-name="android" horiz-adv-x="832" d="M64.975 674.112c-35.866 0-64.975-28.721-64.975-64.108v-256.433c0-35.388 29.109-64.108 64.975-64.108s64.975 28.721 64.975 64.108v256.433c0 35.42-29.109 64.108-64.975 64.108zM766.701 674.112c-35.866 0-64.975-28.721-64.975-64.108v-256.433c0-35.388 29.109-64.108 64.975-64.108s64.975 28.721 64.975 64.108v256.433c0 35.42-29.109 64.108-64.975 64.108zM155.939 160.93h64.325v-160.665c0-35.475 28.818-64.266 64.325-64.266s64.325 28.791 64.325 64.266v160.665h128.65v-160.665c0-35.475 28.818-64.266 64.325-64.266s64.325 28.791 64.325 64.266v160.665h64.325v481.994h-514.599v-481.994zM565.142 879.422l33.031 56.645c4.471 7.642 1.833 17.353-5.918 21.779-7.655 4.426-17.529 1.815-21.967-5.859l-32.195-55.212c-36.987 20.378-79.506 32.064-124.855 32.064-45.317 0-87.836-11.686-124.855-32.096l-32.227 55.276c-4.471 7.61-14.248 10.221-21.999 5.827-7.655-4.394-10.292-14.106-5.886-21.747l33.063-56.677c-63.778-46.36-105.396-120.932-105.396-205.31h514.599c0 84.379-41.618 158.95-105.396 205.31zM316.751 769.635c-17.786 0-32.162 14.233-32.162 31.841s14.377 31.841 32.162 31.841c17.786 0 32.162-14.233 32.162-31.841s-14.377-31.841-32.162-31.841zM509.726 769.635c-17.786 0-32.162 14.233-32.162 31.841s14.377 31.841 32.162 31.841c17.786 0 32.162-14.233 32.162-31.841s-14.377-31.841-32.162-31.841z" />
<glyph unicode="&#xe914;" glyph-name="clock" d="M310.399 169.6c65.333 0 132.533 24.267 173.6 63.466l-26.133 56c-48.533-37.333-93.333-54.133-140-54.133-98.933 0-156.8 67.2-156.8 182.933 0 117.6 57.867 186.666 156.8 186.666 46.667 0 91.466-16.8 140-56l26.133 57.867c-39.2 39.2-104.533 63.466-169.866 63.466-141.866 0-233.333-102.666-233.333-251.999s89.6-248.266 229.599-248.266zM511.999-32c255.733 0 462.932 207.2 462.932 462.932s-207.2 462.932-462.932 462.932c-255.733 0-462.932-207.2-462.932-462.932s207.2-462.932 462.932-462.932zM623.979 251.7c-7.047 0-13.537 2.477-18.647 6.566l-125.066 92.81c-17.095 13.688-28 34.714-28 58.297v290.359c0 16.485 13.382 29.867 29.867 29.867h59.733c16.485 0 29.867-13.382 29.867-29.867v-268.799l108.266-79.333c6.843-5.474 11.231-13.896 11.231-23.333 0-7.057-2.485-13.553-6.583-18.667l-37.333-46.667c-5.476-6.845-13.898-11.233-23.335-11.233z" />
<glyph unicode="&#xe915;" glyph-name="calendar" horiz-adv-x="887" d="M301.866 169.6c65.333 0 132.533 24.267 173.6 63.466l-26.133 56c-48.533-37.333-93.333-54.133-140-54.133-98.933 0-156.8 67.2-156.8 182.933 0 117.6 57.867 186.666 156.8 186.666 46.667 0 91.466-16.8 140-56l26.133 57.867c-39.2 39.2-104.533 63.466-169.866 63.466-141.866 0-233.333-102.666-233.333-251.999s89.6-248.266 229.599-248.266zM839.465 610.132c12.319 0 22.4 10.081 22.4 22.4v67.2c0 49.467-40.133 89.6-89.6 89.6h-89.6v97.066c0 12.319-10.081 22.4-22.4 22.4h-74.667c-12.319 0-22.4-10.081-22.4-22.4v-97.066h-238.933v97.066c0 12.319-10.081 22.4-22.4 22.4h-74.666c-12.319 0-22.4-10.081-22.4-22.4v-97.066h-89.6c-49.467 0-89.6-40.133-89.6-89.6v-67.2c0-12.319 10.081-22.4 22.4-22.4h791.465zM772.265-46.933c49.467 0 89.6 40.133 89.6 89.6v485.332c0 12.319-10.081 22.4-22.4 22.4h-791.465c-12.319 0-22.4-10.081-22.4-22.4v-485.332c0-49.467 40.133-89.6 89.6-89.6h657.065z" />
<glyph unicode="&#xe916;" glyph-name="import-data" d="M1023.998 703.998v12.2c0 12.602-5 24.801-14.001 33.801l-195.8 196c-9 9-21.199 14-34 14h-12.199v-256h256zM975.997-64c26.6 0 48 21.4 48 48v655.998h-271.999c-26.4 0-48 21.6-48 48v271.999h-399.999c-26.6 0-48-21.4-48-48v-527.999h256v130.4c0 28.6 34.599 42.799 54.8 22.6l191.199-192.999c13.199-13.4 13.199-34.801 0-48l-191.4-192.8c-20.199-20.199-54.799-6-54.799 22.602v130.199h-255.8v-271.999c0-26.6 21.4-48 48-48h671.998zM256 255.999v128h-224c-17.599 0-32-14.4-32-32v-64c0-17.599 14.401-32 32-32h224z" />
<glyph unicode="&#xe917;" glyph-name="export-data" horiz-adv-x="1152" d="M767.999 703.998v12.2c0 12.602-5 24.801-14.001 33.801l-195.8 196c-9 9-21.199 14-34 14h-12.199v-256h256zM415.999 255.999c-17.6 0-32 14.401-32 32v64c0 17.6 14.4 32 32 32l351.745-0.063 0.055-127.937h-351.8zM767.998 639.999h-271.999c-26.4 0-48 21.6-48 48v271.999h-399.999c-26.6 0-48-21.4-48-48v-927.998c0-26.6 21.4-48 48-48h671.998c26.6 0 48 21.4 48 48v271.999h127.8v-130.4c0-28.6 34.6-42.799 54.799-22.6l191.4 192.999c13.199 13.199 13.199 34.801 0 48l-191.4 192.8c-20.199 20.199-54.799 6-54.799-22.602v-130.199h-127.8v255.999z" />
<glyph unicode="&#xe918;" glyph-name="orchestrator-b2b" horiz-adv-x="1011" d="M1010.872 931.556c0 15.709-12.572 28.444-28.080 28.444h-954.712c-15.508 0-28.080-12.735-28.080-28.444v-967.111c0-15.709 12.572-28.444 28.080-28.444h954.712c15.508 0 28.080 12.735 28.080 28.444v967.111zM954.712 903.111v-56.889h-421.197c-7.464 0.044-14.637-2.924-19.937-8.249l-103.895-105.529h-353.524v170.667h898.553zM56.16-7.111v682.667h365.037c7.464-0.044 14.637 2.924 19.937 8.249l103.895 105.529h409.684v-796.444h-898.553zM168.479 817.778c0-15.709-12.572-28.444-28.080-28.444s-28.080 12.735-28.080 28.444c0 15.709 12.572 28.444 28.080 28.444s28.080-12.735 28.080-28.444zM280.798 817.778c0-15.709-12.572-28.444-28.080-28.444s-28.080 12.735-28.080 28.444c0 15.709 12.572 28.444 28.080 28.444s28.080-12.735 28.080-28.444zM393.117 817.778c0-15.709-12.572-28.444-28.080-28.444s-28.080 12.735-28.080 28.444c0 15.709 12.572 28.444 28.080 28.444s28.080-12.735 28.080-28.444zM505.436 448c-62.032 0-112.319-50.94-112.319-113.778s50.287-113.778 112.319-113.778c62.032 0 112.319 50.94 112.319 113.778s-50.287 113.778-112.319 113.778zM505.436 277.333c-31.016 0-56.16 25.47-56.16 56.889s25.143 56.889 56.16 56.889c31.016 0 56.16-25.47 56.16-56.889s-25.143-56.889-56.16-56.889zM776.686 427.236l-56.16 98.418c-5.413 9.584-15.813 15.128-26.676 14.222l-56.16-4.836c-8.965 5.995-18.35 11.319-28.080 15.929l-23.587 51.484c-4.51 9.607-13.934 15.861-24.429 16.214h-112.319c-10.903 0.078-20.865-6.243-25.553-16.214l-23.587-51.484c-9.73-4.61-19.115-9.934-28.080-15.929l-56.16 4.836c-10.863 0.906-21.263-4.639-26.676-14.222l-56.16-98.418c-5.809-9.292-5.809-21.144 0-30.436l32.011-46.649c0-5.12 0-10.524 0-15.929s0-10.809 0-15.929l-29.765-46.649c-5.809-9.292-5.809-21.144 0-30.436l56.16-98.418c5.413-9.584 15.813-15.128 26.676-14.222l56.16 4.836c8.965-5.995 18.35-11.319 28.080-15.929l23.587-51.484c4.32-9.261 13.222-15.454 23.306-16.214h112.319c10.903-0.078 20.865 6.243 25.553 16.214l23.587 51.484c9.73 4.61 19.115 9.934 28.080 15.929l56.16-4.836c10.863-0.906 21.263 4.639 26.676 14.222l56.16 98.418c5.809 9.292 5.809 21.144 0 30.436l-32.011 46.649c0 5.12 0 10.524 0 15.929s0 10.809 0 15.929l32.011 46.649c5.471 9.511 5.033 21.365-1.123 30.436zM687.954 334.222c0-7.111 0-13.938 0-20.764-0.765-6.82 0.931-13.689 4.774-19.342l28.080-40.107-38.188-67.129-49.982 5.12c-6.837 0.529-13.629-1.495-19.094-5.689-10.858-8.841-22.626-16.471-35.1-22.756-6.29-2.724-11.382-7.68-14.321-13.938l-20.498-42.951h-76.377l-20.498 44.089c-3.151 5.831-8.217 10.359-14.321 12.8-12.386 5.656-24.151 12.615-35.1 20.764-5.466 4.194-12.257 6.218-19.094 5.689l-48.297-4.267-38.188 67.129 28.080 40.107c3.843 5.653 5.538 12.523 4.774 19.342 0 6.827 0 13.653 0 20.764s0 13.938 0 20.764c0.765 6.82-0.931 13.689-4.774 19.342l-28.080 40.107 38.188 67.129 48.297-4.267c6.837-0.529 13.629 1.495 19.094 5.689 10.845 8.94 22.613 16.665 35.1 23.040 6.29 2.724 11.382 7.68 14.321 13.938l20.217 42.951h76.939l20.217-44.089c2.938-6.258 8.030-11.214 14.321-13.938 12.386-5.656 24.151-12.615 35.1-20.764 5.466-4.194 12.257-6.218 19.094-5.689l48.297 4.267 38.188-67.129-28.080-40.107c-3.843-5.653-5.538-12.523-4.774-19.342 1.123-6.827 1.685-13.653 1.685-20.764z" />
<glyph unicode="&#xe919;" glyph-name="orchestrator-b2c" horiz-adv-x="927" d="M418.471 214.877c-7.245 0-14.863 3.006-20.581 8.376-6.125 5.742-9.688 13.797-9.773 22.122l-0.441 33.825c-0.153 0.068-0.305 0.135-0.441 0.203l-24.059-24.098c-12.284-12.277-31.762-12.496-44.317-0.54l-59.808 56.994c-6.193 5.894-9.654 13.695-9.739 21.97-0.102 8.292 3.173 16.178 9.196 22.223l23.72 23.76-35.003-0.422c-7.737-0.169-15.762 2.651-21.802 8.308-6.125 5.725-9.705 13.797-9.807 22.139l-1.035 81.412c-0.39 7.481 2.511 15.283 8.229 21.328 5.82 6.181 14.066 9.778 22.6 9.879l34.409 0.827c0.017 0.034 0.034 0.068 0.034 0.101l-24.364 23.22c-6.040 5.758-9.484 13.847-9.366 22.19 0.102 8.342 3.75 16.364 9.993 22.021l57.738 57.838c12.267 12.277 31.762 12.53 44.317 0.523l24.636-23.473c0.153 0.051 0.322 0.118 0.458 0.169l-0.424 33.842c-0.39 7.481 2.511 15.283 8.212 21.328 5.837 6.181 14.082 9.778 22.634 9.879l83.358 1.013c7.499 0.355 15.762-2.651 21.802-8.325 6.125-5.725 9.705-13.797 9.807-22.122l0.424-33.875c0.153-0.051 0.305-0.118 0.458-0.186l24.059 24.098c12.267 12.277 31.762 12.513 44.317 0.54l59.537-56.723c6.176-5.894 9.637-13.678 9.739-21.936 0.102-8.292-3.173-16.195-9.196-22.223l-23.737-23.777 35.003 0.422c7.924 0.372 15.779-2.668 21.819-8.325 6.125-5.725 9.705-13.797 9.807-22.122l0.747-81.193c0.39-7.43-2.511-15.232-8.212-21.278-5.837-6.181-14.082-9.778-22.617-9.879l-35.003-0.422 24.347-23.186c0 0 0.017-0.017 0.017-0.017 11.673-11.145 12.827-29.147 2.766-42.809-0.509-0.675-1.069-1.317-1.663-1.908l-58.349-58.429c-12.25-12.294-31.711-12.547-44.317-0.54l-24.636 23.49c-0.17-0.051-0.322-0.118-0.458-0.169l0.424-33.858c0.39-7.481-2.511-15.283-8.212-21.328-5.837-6.181-14.082-9.794-22.634-9.896l-83.358-1.013c-0.407 0.051-0.848 0.034-1.256 0.034zM383.536 316.571c1.951 0 3.902-0.338 5.82-1.030 2.867-1.047 5.497-2.314 8.008-3.563 1.001-0.49 1.951-0.996 2.935-1.402 1.323-0.574 5.158-2.229 7.754-2.786 7.737-1.655 13.302-8.427 13.404-16.296l0.56-42.809 77.963 0.963-0.543 42.775c-0.102 7.903 5.311 14.81 13.048 16.651 1.731 0.405 3.326 1.165 4.988 1.858l3.512 1.435c1.527 0.54 3.699 1.385 7.381 3.597 6.549 3.935 14.965 3.040 20.513-2.246l31.592-30.126 54.752 54.798-31.728 30.228c-4.903 4.678-6.549 11.821-4.157 18.137 1.086 2.871 2.426 5.505 3.733 8.021 0.39 0.743 0.78 1.469 1.12 2.195 0.475 1.334 1.035 2.702 1.612 4.087 0.526 1.283 1.154 2.584 1.442 3.884 1.714 7.65 8.483 13.121 16.373 13.223l44.131 0.523-0.696 75.249-44.114-0.54c-0.085 0-0.153 0-0.221 0-7.805 0-14.592 5.286-16.475 12.851-0.407 1.621-1.154 3.141-1.866 4.711l-1.493 3.496c-0.831 2.246-2.070 4.61-3.614 7.042-4.242 6.653-3.275 15.35 2.307 20.94l30.388 30.414-55.821 53.194-30.829-30.886c-4.632-4.661-11.622-6.231-17.849-3.952-2.867 1.047-5.497 2.314-8.008 3.563-0.797 0.388-1.578 0.794-2.358 1.148-1.391 0.473-2.833 1.030-4.293 1.604-1.323 0.523-2.664 1.148-4.038 1.435-7.737 1.655-13.319 8.427-13.421 16.296l-0.543 42.792-77.963-0.963 0.543-42.775c0.102-7.903-5.311-14.81-13.048-16.651-1.731-0.405-3.309-1.148-4.971-1.858l-3.563-1.452c-1.476-0.523-3.648-1.368-7.347-3.58-6.515-3.952-14.965-3.040-20.513 2.246l-31.609 30.126-54.718-54.798 30.557-29.13c4.903-4.678 6.549-11.821 4.14-18.137-1.069-2.871-2.409-5.488-3.716-7.988-0.492-0.946-1.001-1.874-1.408-2.803-0.543-1.216-2.223-4.931-2.766-7.397-1.697-7.582-8.365-13.037-16.152-13.223l-43.758-1.064 0.984-75.569 44.131 0.54c8.229 0.253 14.744-5.201 16.644-12.767 0.407-1.638 1.171-3.141 1.866-4.711l1.544-3.58c0.577-1.621 1.425-3.58 3.631-7.109 4.174-6.653 3.207-15.283-2.358-20.855l-30.371-30.414 56.109-53.464 30.829 30.886c3.224 3.276 7.584 5.015 12.013 5.015zM458.869 354.82c-26.774 0-51.902 9.896-70.854 27.948-19.359 18.441-30.184 43.383-30.523 70.233-0.339 26.867 9.875 52.063 28.742 70.976 18.765 18.795 44.148 29.35 71.447 29.672 27.011 0.117 52.937-9.576 72.194-27.932 19.342-18.407 30.167-43.349 30.54-70.233 0-0.084 0-0.169 0-0.253-0.051-27.087-10.248-52.215-28.742-70.723-18.782-18.812-44.182-29.35-71.464-29.687-0.441 0-0.899 0-1.34 0zM459.021 519.874c-0.305 0-0.594 0-0.899 0-18.375-0.22-35.342-7.228-47.813-19.707-12.386-12.412-19.088-29.012-18.867-46.743 0.221-17.714 7.347-34.129 20.055-46.254 12.793-12.192 29.726-18.863 48.305-18.559 18.358 0.22 35.342 7.228 47.83 19.724 12.114 12.125 18.799 28.759 18.867 46.828-0.271 17.698-7.398 34.095-20.072 46.152-12.589 11.99-29.404 18.559-47.405 18.559zM443.802 871.816h33.934v-107.857h-33.934v107.857zM460.175 840.828c-33.476 0-60.69 26.732-60.69 59.577 0 32.862 27.215 59.594 60.69 59.594s60.69-26.732 60.69-59.594c0-32.845-27.215-59.577-60.69-59.577zM460.175 926.226c-14.761 0-26.757-11.584-26.757-25.82s11.996-25.803 26.757-25.803c14.761 0 26.757 11.584 26.757 25.803s-11.996 25.82-26.757 25.82zM79.259 650.667l18.322 28.407 97.602-62.361-18.322-28.407zM62.625 619.085c-10.248 0-20.598 2.533-30.082 7.886-14.167 7.988-24.28 20.94-28.453 36.459-4.14 15.367-1.934 31.376 6.193 45.122 16.712 28.269 53.819 38.030 82.696 21.767 14.167-7.988 24.28-20.94 28.453-36.459 4.14-15.367 1.934-31.376-6.193-45.122-11.215-18.998-31.643-29.654-52.614-29.654zM62.777 704.483c-9.281 0-18.307-4.678-23.262-13.037-3.461-5.877-4.411-12.716-2.647-19.268 1.798-6.687 6.21-12.311 12.403-15.806 12.861-7.228 29.336-3.006 36.716 9.507 3.478 5.877 4.428 12.716 2.664 19.268-1.798 6.687-6.21 12.311-12.403 15.806-4.242 2.381-8.891 3.529-13.472 3.529zM76.601 260.671l97.616 62.37 18.322-28.407-97.616-62.37zM60.826 172.069c-20.937 0-41.365 10.639-52.614 29.637-8.127 13.746-10.333 29.772-6.193 45.122 4.174 15.519 14.286 28.472 28.453 36.459v0c28.827 16.262 65.984 6.552 82.713-21.767 8.127-13.729 10.316-29.755 6.176-45.122-4.174-15.519-14.286-28.472-28.453-36.459-9.468-5.319-19.851-7.869-30.082-7.869zM60.69 257.449c-4.598 0-9.23-1.131-13.489-3.546v0c-6.193-3.496-10.604-9.119-12.403-15.806-1.765-6.552-0.814-13.391 2.647-19.268 7.431-12.496 23.94-16.769 36.733-9.507 6.193 3.496 10.604 9.119 12.403 15.806 1.765 6.552 0.814 13.391-2.647 19.268-4.954 8.393-13.964 13.054-23.245 13.054zM438.475 142.82h33.934v-107.857h-33.934v107.857zM456.035-53.221c-33.476 0-60.69 26.732-60.69 59.594 0 32.845 27.215 59.577 60.69 59.577s60.69-26.732 60.69-59.577c0-32.862-27.215-59.594-60.69-59.594zM456.035 32.177c-14.761 0-26.757-11.584-26.757-25.803s11.996-25.82 26.757-25.82c14.761 0 26.757 11.584 26.757 25.82s-11.996 25.803-26.757 25.803zM720.972 290.107l18.322 28.407 97.602-62.361-18.322-28.407zM853.297 168.573c-10.248 0-20.598 2.533-30.065 7.886-14.167 7.988-24.28 20.94-28.453 36.459-4.14 15.367-1.934 31.376 6.193 45.122 16.678 28.286 53.785 38.030 82.696 21.767 14.167-7.988 24.28-20.94 28.453-36.459 4.14-15.367 1.934-31.376-6.193-45.122-11.249-19.015-31.677-29.654-52.631-29.654zM853.45 253.954c-9.281 0-18.29-4.661-23.228-13.037-3.478-5.877-4.428-12.716-2.664-19.268 1.798-6.687 6.21-12.311 12.403-15.806 12.861-7.295 29.353-3.006 36.733 9.507 3.461 5.877 4.411 12.716 2.647 19.268-1.798 6.687-6.21 12.311-12.403 15.806-4.259 2.398-8.908 3.529-13.489 3.529zM723.636 612.203l97.616 62.37 18.322-28.407-97.616-62.37zM855.639 615.589c-20.937 0-41.365 10.639-52.614 29.654-8.127 13.729-10.316 29.755-6.176 45.122 4.174 15.519 14.286 28.472 28.453 36.459 28.844 16.262 65.984 6.535 82.696-21.75 8.127-13.746 10.333-29.772 6.193-45.122-4.174-15.519-14.286-28.472-28.453-36.459v0c-9.468-5.37-19.851-7.903-30.099-7.903zM855.52 700.97c-4.598 0-9.247-1.131-13.489-3.529-6.193-3.496-10.604-9.119-12.403-15.806-1.765-6.552-0.814-13.391 2.647-19.268 7.415-12.513 23.872-16.803 36.733-9.507v0c6.193 3.496 10.604 9.119 12.403 15.806 1.765 6.552 0.814 13.391-2.647 19.268-4.954 8.359-13.964 13.037-23.245 13.037z" />
</font>
</defs>
</svg>
